<?xml version="1.0" standalone="no"?> <!DOCTYPE svg PUBLIC "-//W3C//DTD SVG 1.0//EN" "http://www.w3.org/TR/2001/REC-SVG-20010904/DTD/svg10.dtd" > <svg xmlns="http://www.w3.org/2000/svg" width="100%" height="100%">
<defs >
<font id="MicrogrammaDBolExt" horiz-adv-x="1186" ><font-face
    font-family="MicrogrammaDBolExt"
    units-per-em="2048"
    panose-1="2 14 9 7 3 5 6 6 2 4"
    ascent="1875"
    descent="-582"
    alphabetic="0" />
<missing-glyph horiz-adv-x="512" d="M51 0V1365H461V0H51ZM410 51V1314H102V51H410Z" />
<glyph unicode=" " glyph-name="space" horiz-adv-x="512" />
<glyph unicode="!" glyph-name="exclam" horiz-adv-x="683" d="M137 1365H546V585H137V1365ZM112 427H570V0H112V427Z" />
<glyph unicode="&quot;" glyph-name="quotedbl" horiz-adv-x="1065" d="M431 762H115L75 1365H471L431 762ZM950 762H634L594 1365H990L950 762Z" />
<glyph unicode="#" glyph-name="numbersign" horiz-adv-x="1857" d="M560 1365H820L773 1034H1183L1229 1365H1489L1442 1034H1715L1685 816H1412L1374 549H1648L1617 331H1343L1297 0H1038L1084 331H674L628 0H369L415 331H142L173 549H446L483 816H210L241 1034H514L560
1365ZM743 816L705 549H1115L1152 816H743Z" />
<glyph unicode="$" glyph-name="dollar" horiz-adv-x="1857" d="M806 1497H1029V1382Q1394 1382 1554 1348Q1708 1316 1765 1208Q1798 1147 1798 1004L1797 943H1435Q1436 1015 1409 1037Q1384 1056 1334 1061T1061 1073H1029V845L1053 844Q1414 836 1504 828T1666
791Q1772 748 1809 653Q1840 573 1840 436Q1840 168 1729 74T1300 -20Q1218 -20 1029 -18V-162H806V-18Q759 -18 729 -18Q324 -18 194 33Q95 71 56 148T16 379Q16 395 18 473H380Q381 454 381 448Q383 366 395 341T452 304Q514 290 750 290Q768 290 806 290V545Q531
548 460 551T302 569Q157 592 95 680T33 954Q33 1165 107 1255Q152 1309 221 1335T418 1372Q547 1383 717 1383Q749 1383 806 1382V1497ZM806 1072H787Q515 1067 479 1054Q419 1031 419 964Q419 873 518 859Q597 847 806 846V1072ZM1029 295Q1090 293 1153 293Q1352
293 1404 313T1456 412Q1456 459 1440 483T1386 520Q1338 534 1087 539L1029 541V295Z" />
<glyph unicode="%" glyph-name="percent" horiz-adv-x="2746" d="M583 1386Q923 1386 1036 1332Q1090 1306 1106 1240T1122 979Q1122 770 1103 707T1015 616Q899 571 582 571Q266 571 149 615Q81 641 61 710T41 994Q41 1196 65 1260T176 1351Q291 1385 583 1386ZM578
1174Q391 1174 336 1152Q306 1140 294 1102T281 982Q281 888 295 850T348 800Q403 782 577 782Q756 782 828 802Q862 812 872 862Q881 906 881 978Q881 1073 865 1120Q857 1143 837 1151T753 1165Q670 1174 578 1174ZM2008 1397L2148 1237L741 -32L597 129L2008
1397ZM2144 801Q2478 801 2608 748Q2670 723 2687 659T2705 390Q2705 173 2685 112T2585 23Q2453 -21 2142 -21Q1845 -21 1725 26Q1658 53 1639 121T1620 406Q1620 607 1643 671T1750 763Q1868 800 2144 801ZM2145 586Q1973 586 1917 566Q1886 555 1874 517T1862
394Q1862 295 1875 258T1929 209Q1985 193 2143 193Q2339 193 2409 214Q2439 222 2451 262T2464 390Q2464 484 2450 521T2398 568Q2324 586 2145 586Z" />
<glyph unicode="&amp;" glyph-name="ampersand" horiz-adv-x="1939" d="M1371 748H1721Q1721 715 1721 667Q1721 478 1703 416L2022 258L1891 -7L1605 139Q1540 48 1390 17T862 -14Q538 -14 400 1T189 60Q115 106 85 186T55 422Q55 611 111 680T338 773Q260 804
232 863T204 1051Q204 1209 263 1276Q302 1321 362 1342T529 1372Q619 1379 855 1379Q1190 1379 1301 1370T1474 1326Q1540 1290 1566 1220T1592 1011Q1592 997 1591 932H1226Q1222 1038 1202 1056Q1175 1080 936 1080Q661 1080 632 1069Q590 1054 590 1001Q590
969 604 954T675 911L1369 573V591Q1372 668 1372 686Q1372 714 1371 748ZM581 618Q487 607 465 580T442 445Q442 367 461 337T535 297Q596 287 818 287Q841 287 1064 289Q1213 290 1230 291T1271 303L581 618Z" />
<glyph unicode="&apos;" glyph-name="quotesingle" horiz-adv-x="546" d="M431 762H115L75 1365H471L431 762Z" />
<glyph unicode="(" glyph-name="parenleft" horiz-adv-x="804" d="M735 1411V1154Q690 1154 675 1154Q563 1155 518 1140T458 1081Q447 1050 445 997T440 630Q443 315 447 259T476 173Q497 147 527 143T735 134V-128Q679 -127 662 -128Q392 -129 301 -98Q125 -37
87 184Q68 292 68 667Q68 915 79 1032T120 1218Q163 1317 247 1359T498 1408Q516 1409 735 1411Z" />
<glyph unicode=")" glyph-name="parenright" horiz-adv-x="804" d="M68 1411Q132 1411 151 1411Q410 1411 500 1382Q674 1325 715 1112Q735 1005 735 667Q735 393 725 270T686 75Q643 -30 557 -75T299 -125Q290 -126 68 -128V134Q115 135 130 134Q252 133 294
149T349 222Q363 277 363 630Q363 908 356 998T326 1114Q302 1141 264 1147T68 1154V1411Z" />
<glyph unicode="*" glyph-name="asterisk" horiz-adv-x="1024" d="M420 1365H610V1162L806 1217L858 1035L669 981L784 811L631 702L511 873L388 712L237 826L359 989L165 1053L225 1232L420 1167V1365Z" />
<glyph unicode="+" glyph-name="plus" horiz-adv-x="1857" d="M805 573H259V819H805V1300H1051V819H1597V573H1051V93H805V573Z" />
<glyph unicode="," glyph-name="comma" horiz-adv-x="698" d="M146 405H583V7Q583 -120 572 -183T530 -284Q491 -334 425 -350T194 -366Q147 -366 89 -364V-150H119H156Q211 -150 235 -124T260 -38V0H146V405Z" />
<glyph unicode="-" glyph-name="hyphen" horiz-adv-x="864" d="M3 630H864V353H0L3 630Z" />
<glyph unicode="." glyph-name="period" horiz-adv-x="669" d="M116 363H553V0H116V363Z" />
<glyph unicode="/" glyph-name="slash" horiz-adv-x="1254" d="M1322 1661L192 -296H-68L1061 1661H1322Z" />
<glyph unicode="0" glyph-name="zero" horiz-adv-x="1857" d="M929 1381Q1319 1381 1480 1357Q1663 1331 1734 1199Q1770 1133 1778 1052T1786 683Q1786 457 1784 395T1770 272Q1743 119 1614 51Q1561 23 1489 10T1283 -9Q1123 -16 930 -16Q539 -16 378 8Q195
35 124 166Q88 233 80 314T72 701Q72 909 74 971T88 1093Q115 1247 244 1314Q297 1343 369 1356T575 1374Q732 1381 929 1381ZM904 1026Q620 1026 558 989Q518 965 503 900T488 689Q488 520 505 456T574 368Q610 352 656 348T902 339Q1157 344 1196 348Q1308 360
1339 419T1370 683Q1370 845 1353 909T1284 997Q1246 1014 1198 1018T904 1026Z" />
<glyph unicode="1" glyph-name="one" horiz-adv-x="1857" d="M712 1365H1370V0H954V1009H846L443 669L213 937L712 1365Z" />
<glyph unicode="2" glyph-name="two" horiz-adv-x="1857" d="M513 857H110Q110 1022 123 1108Q147 1260 261 1316Q337 1353 474 1367T888 1382Q1305 1382 1422 1373T1606 1323Q1680 1279 1708 1198T1737 950Q1737 830 1724 761T1677 643Q1633 578 1560 552Q1436
508 1259 497Q831 472 706 461T554 431Q529 414 522 395T512 314H1759V0H130Q126 81 126 156Q126 391 141 492Q171 684 362 732Q436 750 497 757T856 787Q1144 809 1198 815T1288 833Q1324 845 1336 867T1348 945Q1348 1004 1335 1030T1286 1067Q1242 1082 973
1082Q743 1082 652 1075T539 1047Q522 1030 518 1000T513 857Z" />
<glyph unicode="3" glyph-name="three" horiz-adv-x="1857" d="M498 890H102L101 972Q101 1165 167 1244Q209 1295 276 1322T461 1362Q640 1382 971 1382Q1259 1382 1386 1367T1579 1311Q1648 1268 1677 1196T1706 999Q1706 854 1659 791T1484 701Q1602 674 1645
644Q1691 612 1711 550T1732 377Q1732 209 1678 134Q1610 42 1433 13T766 -17Q585 -17 494 -10T320 20Q137 69 110 245Q97 328 97 491H493Q494 472 494 466Q495 385 508 356T563 316Q599 308 909 304Q1168 310 1215 314T1289 334Q1329 359 1329 428Q1329 514 1270
531Q1223 545 975 545H734V839H1049Q1203 839 1253 862T1303 956Q1303 1031 1251 1050Q1200 1068 921 1068Q690 1068 619 1062T525 1033Q508 1017 505 999T498 890Z" />
<glyph unicode="4" glyph-name="four" horiz-adv-x="1857" d="M1844 561V254H1580V0H1185V254H94V777L906 1365H1580V561H1844ZM1185 561V1049H1101L466 615V561H1185Z" />
<glyph unicode="5" glyph-name="five" horiz-adv-x="1857" d="M149 1365H1668V1071H779Q556 1070 514 1081V935Q514 870 511 833Q576 893 637 909Q740 936 1043 936Q1476 936 1598 857Q1669 811 1700 725T1732 488Q1732 291 1690 189T1549 44Q1467 7 1358 -5T1010
-17Q698 -17 558 -9T316 22Q197 49 147 128T96 368Q96 383 97 422H493Q496 344 518 322Q541 301 625 293T899 284Q1118 284 1179 287T1273 303Q1305 316 1317 353T1329 475Q1329 552 1311 583T1243 624Q1132 644 810 644Q628 644 571 627T513 555Q513 550 514 538H149V1365Z"
/>
<glyph unicode="6" glyph-name="six" horiz-adv-x="1857" d="M1726 984H1337Q1334 1033 1315 1047Q1299 1058 1276 1061T1164 1069Q1028 1075 923 1075Q643 1075 572 1045Q537 1031 524 987T510 840Q510 812 511 763Q590 839 692 861T1064 884Q1467 884 1591 799T1716
439Q1716 234 1666 145Q1627 77 1559 43T1366 -4Q1233 -17 849 -17Q535 -17 389 13Q179 57 138 252Q124 324 119 416T114 727Q114 898 119 972T139 1114Q173 1265 298 1316Q458 1382 962 1382Q1350 1382 1510 1349Q1685 1314 1713 1162Q1724 1099 1726 984ZM866
577Q633 577 588 559Q517 531 517 433Q517 376 534 345T591 303Q640 290 855 290Q1119 290 1212 300Q1267 305 1290 335T1313 431Q1313 497 1291 527T1217 566Q1137 577 866 577Z" />
<glyph unicode="7" glyph-name="seven" horiz-adv-x="1857" d="M155 1365H1716V1047L941 0H416L1188 1019H155V1365Z" />
<glyph unicode="8" glyph-name="eight" horiz-adv-x="1857" d="M392 698Q287 705 237 737Q142 800 142 1001Q142 1175 206 1255Q246 1304 312 1329T502 1365Q671 1381 928 1381Q1416 1381 1547 1327Q1643 1288 1681 1204Q1714 1128 1714 1001Q1714 839 1660 774T1464
698Q1584 677 1627 648Q1683 611 1706 544T1730 357Q1730 188 1673 112Q1632 58 1557 31T1346 -8Q1246 -16 928 -16Q606 -16 492 -8T299 31Q205 67 166 141T126 357Q126 485 153 554T246 658Q287 680 392 698ZM886 1075Q653 1075 596 1055T538 955Q538 871 591
855T913 838Q1151 838 1199 840T1278 857Q1318 875 1318 956Q1318 1004 1300 1028T1242 1060Q1168 1074 886 1075ZM928 545Q623 545 576 529Q546 519 534 494T522 415Q522 359 536 336T591 303Q637 291 888 291Q1161 291 1250 303Q1298 310 1316 335T1334 424Q1334
475 1321 498T1273 530Q1240 540 928 545Z" />
<glyph unicode="9" glyph-name="nine" horiz-adv-x="1857" d="M159 397H555Q556 385 557 381Q559 343 568 330T605 308Q664 290 887 290Q1144 290 1228 307T1331 381Q1346 428 1347 602Q1302 551 1260 532Q1194 501 1093 489T812 477Q416 477 290 531Q200 570
163 659T125 929Q125 1148 186 1235Q246 1320 398 1350T913 1381Q1226 1381 1385 1360T1615 1289Q1697 1232 1721 1108T1746 631Q1746 363 1722 255Q1682 70 1478 27Q1267 -17 788 -17Q564 -17 449 -2T268 54Q203 93 181 162T159 397ZM920 1074Q652 1074 590 1051T528
928Q528 865 543 837T598 799Q654 784 890 784Q1229 784 1283 806Q1316 820 1329 847T1343 931Q1343 990 1329 1017T1276 1055Q1211 1074 920 1074Z" />
<glyph unicode=":" glyph-name="colon" horiz-adv-x="669" d="M116 969H553V606H116V969ZM116 363H553V0H116V363Z" />
<glyph unicode=";" glyph-name="semicolon" horiz-adv-x="698" d="M146 405H583V7Q583 -120 572 -183T530 -284Q491 -334 425 -350T194 -366Q147 -366 89 -364V-150H119H156Q211 -150 235 -124T260 -38V0H146V405ZM146 969H583V606H146V969Z" />
<glyph unicode="&lt;" glyph-name="less" horiz-adv-x="1024" d="M955 1342V949L485 682L955 416V23L68 519V848L955 1342Z" />
<glyph unicode="=" glyph-name="equal" horiz-adv-x="1857" d="M259 1024H1597V778H259V1024ZM259 615H1597V369H259V615Z" />
<glyph unicode="&gt;" glyph-name="greater" horiz-adv-x="1024" d="M68 1342L955 848V519L68 23V416L538 682L68 949V1342Z" />
<glyph unicode="?" glyph-name="question" horiz-adv-x="1445" d="M386 877H27Q28 932 28 949Q27 1064 38 1127T78 1232Q117 1288 181 1318T357 1365Q511 1386 763 1386Q1148 1386 1271 1320Q1349 1278 1380 1201T1411 971Q1411 860 1396 796T1344 689Q1303 640
1233 617T940 557Q859 543 840 528T819 462H462Q461 504 461 515Q461 681 516 742T748 831Q939 861 995 882Q1057 905 1057 984Q1057 1070 983 1088Q926 1103 730 1103Q541 1103 486 1093Q397 1078 391 993Q388 967 387 908Q387 898 386 877ZM425 364H867V0H425V364Z"
/>
<glyph unicode="@" glyph-name="at" horiz-adv-x="1952" d="M1229 1036H1526L1487 595Q1487 591 1487 579Q1487 533 1505 518T1577 503Q1618 503 1637 521T1665 587Q1676 644 1676 814Q1676 1009 1654 1084Q1627 1178 1502 1190Q1410 1198 1131 1198Q698 1198
583 1191T406 1152Q336 1115 309 1032T282 765Q282 551 289 451T316 298Q350 205 494 179Q563 167 846 167Q1132 167 1250 173T1423 199Q1457 210 1491 255L1665 192Q1632 113 1576 74Q1500 23 1361 8T808 -7Q558 -7 466 1T305 37Q131 108 92 290Q68 405 68 662Q68
983 111 1096Q188 1298 417 1348Q485 1363 605 1367T1041 1372Q1356 1372 1474 1366T1656 1342Q1825 1292 1868 1115Q1891 1022 1891 815Q1891 654 1875 567T1817 421Q1778 367 1713 347T1513 326Q1335 326 1273 348T1188 440H1180Q1149 374 1079 350T850 325Q610
325 522 381T433 589Q433 880 543 975Q597 1021 679 1037T936 1054Q1068 1054 1122 1032T1213 941H1221L1229 1036ZM993 836Q818 836 776 805Q732 772 732 653Q732 604 747 583T803 554Q860 544 951 544Q1107 544 1156 574Q1203 603 1203 728Q1203 769 1193 789T1156
819Q1109 836 993 836Z" />
<glyph unicode="A" glyph-name="A" horiz-adv-x="2016" d="M1578 0L1461 231H558L441 0H-34L690 1365H1336L2050 0H1578ZM1315 530L1052 1047H969L706 530H1315Z" />
<glyph unicode="B" glyph-name="B" horiz-adv-x="1859" d="M96 0V1365H1077Q1390 1364 1449 1360Q1583 1352 1646 1312Q1707 1274 1733 1204T1760 1010Q1760 863 1720 794T1576 695Q1667 679 1711 649Q1811 582 1811 367Q1811 200 1759 120Q1724 66 1664 41T1495
7Q1424 2 1080 0H96ZM492 827H1078Q1271 827 1308 842Q1357 861 1357 940Q1357 1021 1298 1037Q1275 1043 1078 1044H492V827ZM492 328H1080Q1263 329 1297 331T1354 342Q1408 363 1408 446Q1408 532 1346 547Q1324 553 1080 554H492V328Z" />
<glyph unicode="C" glyph-name="C" horiz-adv-x="1862" d="M1394 527H1810Q1814 427 1814 398Q1814 240 1767 151Q1715 51 1564 15T1042 -21Q652 -21 487 -6T237 52Q162 91 125 157T77 338Q68 431 68 674Q68 911 77 1016T112 1179Q169 1309 343 1347T1045 1386Q1309
1386 1429 1374T1620 1329Q1713 1285 1751 1199T1789 944Q1789 935 1788 876H1372Q1369 944 1364 967T1341 1005Q1317 1026 1220 1035T926 1045Q731 1045 656 1037T550 1003Q513 973 499 902T484 676Q484 521 497 458T547 366Q582 339 658 330T929 321Q1168 321
1247 329T1355 364Q1392 399 1394 527Z" />
<glyph unicode="D" glyph-name="D" horiz-adv-x="1967" d="M96 0V1365H1081Q1343 1365 1424 1361T1593 1339Q1798 1297 1860 1107Q1883 1035 1891 953T1899 703Q1899 520 1890 426T1854 255Q1793 75 1603 33Q1514 13 1413 7T1082 0H96ZM506 348H1085Q1245 348
1320 358T1427 395Q1461 424 1475 487T1489 677Q1489 804 1477 868T1435 966Q1401 1003 1337 1013T1081 1024H506V348Z" />
<glyph unicode="E" glyph-name="E" horiz-adv-x="1650" d="M96 1365H1608V1044H506V847H1552V547H506V328H1616V0H96V1365Z" />
<glyph unicode="F" glyph-name="F" horiz-adv-x="1538" d="M96 1365H1539V1044H512V786H1489V472H512V0H96V1365Z" />
<glyph unicode="G" glyph-name="G" horiz-adv-x="1946" d="M925 774H1876Q1878 741 1878 737Q1878 448 1863 302Q1839 66 1595 16Q1490 -5 1355 -12T941 -20Q589 -20 443 -1T212 75Q154 114 123 175T80 336Q68 429 68 704Q68 891 78 986T117 1156Q176 1314 368
1348Q578 1385 1013 1385Q1271 1385 1421 1372T1668 1329Q1825 1280 1858 1117Q1874 1036 1875 894H1459Q1458 952 1452 972T1427 1007Q1392 1032 1281 1038Q1176 1044 977 1044Q761 1044 669 1034T542 997Q508 969 496 906T484 688Q484 515 496 447T542 350Q576
323 630 318T975 308Q1259 310 1320 313T1418 332Q1448 345 1460 374T1473 463Q1473 472 1472 501H925V774Z" />
<glyph unicode="H" glyph-name="H" horiz-adv-x="2004" d="M96 1365H533V877H1472V1365H1909V0H1472V495H533V0H96V1365Z" />
<glyph unicode="I" glyph-name="I" horiz-adv-x="628" d="M96 1365H533V0H96V1365Z" />
<glyph unicode="J" glyph-name="J" horiz-adv-x="1536" d="M1032 1365H1448V549Q1448 356 1430 265T1359 114Q1292 37 1163 9T748 -20Q403 -20 249 17Q62 62 24 241Q7 318 7 447Q7 503 10 590H426Q426 478 432 440T460 380Q507 335 718 335Q940 335 994 381Q1017
401 1024 435T1032 558V1365Z" />
<glyph unicode="K" glyph-name="K" horiz-adv-x="1942" d="M96 1365H512V870H740L1280 1374H1916L1127 695L1983 0H1351L740 522H512V0H96V1365Z" />
<glyph unicode="L" glyph-name="L" horiz-adv-x="1503" d="M96 1365H533V348H1504V0H96V1365Z" />
<glyph unicode="M" glyph-name="M" horiz-adv-x="2507" d="M96 1365H850L1256 479L1662 1365H2412V0H2002L2012 1022H1944L1429 0H1084L569 1022H496L506 0H96V1365Z" />
<glyph unicode="N" glyph-name="N" horiz-adv-x="2091" d="M96 1365H825L1540 347H1583L1573 1365H1996V0H1273L555 1018H510L519 0H96V1365Z" />
<glyph unicode="O" glyph-name="O" horiz-adv-x="2012" d="M1006 1385Q1448 1385 1614 1363Q1853 1331 1907 1136Q1944 1002 1944 683Q1944 363 1907 229Q1853 34 1614 2Q1448 -20 1010 -20Q564 -20 398 2Q159 34 105 229Q68 363 68 691Q68 1003 105 1136Q159
1331 398 1363Q563 1385 1006 1385ZM1007 1030Q676 1030 609 1013Q532 993 508 924T484 647Q484 522 497 466Q522 362 648 347Q741 335 1009 335Q1260 335 1343 344T1466 384Q1502 412 1515 466T1528 645Q1528 792 1518 861T1482 965Q1449 1009 1373 1019T1007
1030Z" />
<glyph unicode="P" glyph-name="P" horiz-adv-x="1776" d="M96 0V1365H1031Q1309 1365 1389 1354Q1592 1327 1663 1224T1735 854Q1735 601 1676 499Q1636 430 1564 394T1367 344Q1278 334 1035 334H512V0H96ZM512 675H1032Q1174 676 1205 679T1262 695Q1294 712
1306 746T1318 854Q1318 927 1303 961T1250 1010Q1222 1021 1032 1024H512V675Z" />
<glyph unicode="Q" glyph-name="Q" horiz-adv-x="2038" d="M2108 276L1951 -14L1817 81Q1731 16 1585 -2T992 -20Q564 -20 398 2Q159 34 105 229Q68 363 68 683Q68 1002 105 1136Q159 1331 398 1363Q564 1385 1006 1385Q1448 1385 1614 1363Q1853 1331 1907 1136Q1928
1061 1936 960T1944 673Q1944 473 1932 367L2108 276ZM1103 869L1527 601Q1528 630 1528 645Q1528 792 1518 861T1482 965Q1449 1009 1373 1019T1006 1030Q676 1030 610 1013Q532 993 508 923T484 646Q484 521 497 467T546 384Q587 352 670 344T1025 335Q1288 335
1377 348L937 581L1103 869Z" />
<glyph unicode="R" glyph-name="R" horiz-adv-x="1843" d="M96 0V1365H1101Q1455 1364 1525 1358T1660 1311Q1738 1264 1767 1182T1796 922Q1796 773 1778 703T1708 591Q1653 546 1542 529Q1673 519 1730 454Q1763 415 1772 360T1781 127V0H1371V73Q1371 187 1363
235T1331 310Q1308 334 1268 340T1098 347H512V0H96ZM512 688H1097Q1250 691 1279 693T1330 709Q1357 726 1368 759T1379 861Q1379 928 1367 961T1323 1009Q1301 1019 1271 1021T1096 1024H512V688Z" />
<glyph unicode="S" glyph-name="S" horiz-adv-x="1767" d="M48 452H451Q450 351 492 322Q522 303 569 300T869 294Q1133 295 1186 297T1270 313Q1316 332 1316 416Q1316 477 1284 497T1151 520Q1074 520 825 532Q570 544 493 546Q343 551 263 574T137 651Q60 739
60 945Q60 1176 148 1271Q215 1345 354 1365T919 1386Q1220 1386 1342 1369Q1530 1343 1600 1265T1670 1000Q1670 983 1669 936H1266Q1264 993 1257 1014T1227 1048Q1200 1064 1132 1068T844 1073Q579 1073 521 1057T463 965Q463 893 521 877Q569 864 962 852Q1293
842 1404 829T1582 777Q1657 732 1688 654T1719 428Q1719 235 1667 141Q1628 72 1559 38T1363 -8Q1228 -20 860 -20Q552 -20 405 -4T184 53Q107 97 78 169T48 388V452Z" />
<glyph unicode="T" glyph-name="T" horiz-adv-x="1652" d="M0 1365H1652V1017H1045V0H608V1017H0V1365Z" />
<glyph unicode="U" glyph-name="U" horiz-adv-x="1952" d="M89 1365H505V738Q508 522 520 465Q536 385 623 360T977 335Q1193 335 1276 347T1395 397Q1418 423 1427 460T1442 587Q1447 679 1447 738V1365H1863V738Q1856 411 1842 310Q1817 138 1678 58Q1599 12
1455 -4T982 -20Q735 -20 601 -11T368 21Q149 73 112 285Q98 366 95 432T89 738V1365Z" />
<glyph unicode="V" glyph-name="V" horiz-adv-x="1926" d="M-27 1365H430L928 343H1006L1499 1365H1953L1287 0H648L-27 1365Z" />
<glyph unicode="W" glyph-name="W" horiz-adv-x="2822" d="M-27 1365H397L763 343H840L1149 1365H1651L1962 343H2040L2408 1365H2849L2318 0H1676L1402 1001L1131 0H487L-27 1365Z" />
<glyph unicode="X" glyph-name="X" horiz-adv-x="2048" d="M39 1365H608L1029 886L1453 1365H2029L1372 690L2061 0H1476L1029 491L585 0H-14L684 690L39 1365Z" />
<glyph unicode="Y" glyph-name="Y" horiz-adv-x="1878" d="M-41 1365H506L951 818L1377 1365H1919L1172 483V0H742V483L-41 1365Z" />
<glyph unicode="Z" glyph-name="Z" horiz-adv-x="1772" d="M63 1365H1701V1052L701 328L1731 341V0H41V319L1028 1037L63 1024V1365Z" />
<glyph unicode="[" glyph-name="bracketleft" horiz-adv-x="804" d="M96 1393H731V1137H461V147H731V-109H96V1393Z" />
<glyph unicode="\" glyph-name="backslash" horiz-adv-x="1254" d="M-68 1661H193L1322 -296H1062L-68 1661Z" />
<glyph unicode="]" glyph-name="bracketright" horiz-adv-x="804" d="M708 1393V-109H73V147H343V1137H73V1393H708Z" />
<glyph unicode="^" glyph-name="asciicircum" horiz-adv-x="1024" d="M356 688H11L294 1376H730L1013 688H669L513 1109L356 688Z" />
<glyph unicode="_" glyph-name="underscore" horiz-adv-x="1024" d="M0 -82H1024V-328H0V-82Z" />
<glyph unicode="`" glyph-name="grave" horiz-adv-x="1024" d="M299 1593L719 1173L628 1056L114 1346L299 1593Z" />
<glyph unicode="a" glyph-name="a" horiz-adv-x="1433" d="M451 665H90Q97 778 138 836Q203 929 339 962T801 995Q1040 995 1127 977T1275 898Q1323 850 1340 783T1358 583V0H1010V132H993Q953 48 866 10Q820 -10 737 -17T473 -25Q327 -25 248 -7T121 57Q51 124
51 276Q51 445 134 520Q200 579 308 597T706 615Q831 615 884 601T980 539H996V590Q996 704 954 733T747 762Q552 762 506 747T451 665ZM693 409Q510 409 466 387Q413 361 413 308Q413 249 465 228T663 207Q853 207 921 230T989 317Q989 375 930 397Q903 407 693
409Z" />
<glyph unicode="b" glyph-name="b" horiz-adv-x="1502" d="M82 1365H444V839H460Q515 929 600 961T866 994Q1045 994 1153 973T1325 904Q1396 851 1422 763T1448 487Q1448 365 1441 301T1412 181Q1370 67 1250 21T876 -25Q622 -25 526 33Q483 59 443 127H423V0H82V1365ZM767
721Q580 721 516 687Q475 665 460 620T444 480Q444 378 462 336T534 275Q608 248 773 248Q964 248 1027 288Q1060 309 1073 355T1086 493Q1086 589 1069 631T1003 692Q931 721 767 721Z" />
<glyph unicode="c" glyph-name="c" horiz-adv-x="1432" d="M1012 389H1381Q1376 268 1357 205T1290 93Q1220 22 1102 -1T699 -25Q475 -25 364 -6T179 64Q109 114 82 206T55 491Q55 666 80 755T169 896Q239 952 355 973T717 994Q958 994 1080 972T1272 895Q1330
848 1353 780T1382 575H1013Q1004 658 940 689T716 721Q555 721 491 691Q451 671 434 623T417 479Q417 386 435 342T499 278Q567 248 721 248Q881 248 940 277T1012 389Z" />
<glyph unicode="d" glyph-name="d" horiz-adv-x="1501" d="M1419 1365V0H1078V127H1058Q1020 61 974 34Q874 -25 630 -25Q434 -25 328 -2T160 78Q100 132 78 221T55 490Q55 615 67 691T110 825Q167 933 310 968Q415 994 634 994Q825 994 907 963T1042 839H1057V1365H1419ZM752
721Q538 721 478 680T417 495Q417 386 435 340T502 274Q567 248 730 248Q932 248 999 290Q1032 310 1045 354T1059 483Q1059 582 1041 628T977 693Q911 721 752 721Z" />
<glyph unicode="e" glyph-name="e" horiz-adv-x="1420" d="M997 310H1358Q1343 152 1262 83Q1192 22 1064 -1T680 -25Q469 -25 356 -5T177 66Q107 119 81 207T55 480Q55 618 65 687T103 813Q161 929 313 964Q443 994 717 994Q959 994 1058 977Q1234 947 1300 846T1366
504Q1366 481 1364 406H417Q417 332 426 300T464 247Q518 207 708 207Q829 207 889 216T972 248Q990 266 997 310ZM1002 604Q1000 661 995 682T973 721Q926 769 722 769Q539 769 480 737T417 604H1002Z" />
<glyph unicode="f" glyph-name="f" horiz-adv-x="891" d="M0 710V969H187Q192 1123 210 1185T282 1296Q341 1350 427 1369T695 1389Q781 1389 877 1384V1145Q807 1147 781 1147Q630 1147 585 1106Q565 1088 558 1061T549 969H905V710H549V0H187V710H0Z" />
<glyph unicode="g" glyph-name="g" horiz-adv-x="1496" d="M1080 969H1421V78Q1421 -44 1416 -87T1390 -189Q1366 -258 1311 -312T1184 -390Q1034 -441 710 -441Q480 -441 367 -418T185 -334Q94 -253 79 -88H448L451 -98Q467 -153 520 -171T716 -189Q859 -189
922 -176T1019 -126Q1045 -96 1052 -60T1060 78V163H1046Q991 74 908 43T645 12Q459 12 355 30T187 94Q111 148 83 238T55 516Q55 741 112 831Q169 923 286 958T649 994Q838 994 921 964T1063 842H1080V969ZM751 721Q547 721 483 685Q447 664 432 624T417 503Q417
410 437 368T513 307Q579 285 732 285Q939 285 1002 329Q1034 351 1046 388T1058 503Q1058 588 1043 629T986 689Q921 721 751 721Z" />
<glyph unicode="h" glyph-name="h" horiz-adv-x="1470" d="M82 1365H444V821H460Q505 913 600 953T868 994Q1029 994 1127 966T1287 873Q1350 808 1372 726T1394 472V0H1032V472Q1032 558 1024 598T991 664Q939 721 752 721Q561 721 499 659Q467 628 456 577T444
414V0H82V1365Z" />
<glyph unicode="i" glyph-name="i" horiz-adv-x="526" d="M82 969H444V0H82V969ZM82 1365H444V1093H82V1365Z" />
<glyph unicode="j" glyph-name="j" horiz-adv-x="575" d="M132 969H494V59Q494 -83 488 -133T460 -227Q422 -304 337 -336T85 -368Q28 -368 -27 -364V-116Q4 -118 22 -118Q111 -118 125 -43Q132 -4 132 112V969ZM132 1365H494V1092H132V1365Z" />
<glyph unicode="k" glyph-name="k" horiz-adv-x="1365" d="M82 1365H444V651H522L854 969H1340L837 516L1406 0H926L536 388H444V0H82V1365Z" />
<glyph unicode="l" glyph-name="l" horiz-adv-x="526" d="M82 1365H444V0H82V1365Z" />
<glyph unicode="m" glyph-name="m" horiz-adv-x="2272" d="M82 969H423V824H441Q519 994 834 994Q1009 994 1112 947T1274 791Q1318 899 1415 946T1692 994Q1842 994 1937 965T2095 869Q2157 804 2177 723T2197 453V0H1835V453Q1835 559 1827 601T1794 668Q1741
721 1590 721Q1431 721 1375 660Q1344 626 1333 572T1321 400V0H959V453Q959 566 953 603T921 667Q871 721 720 721Q557 721 498 662Q467 630 456 575T444 400V0H82V969Z" />
<glyph unicode="n" glyph-name="n" horiz-adv-x="1472" d="M82 969H423V821H442Q491 916 584 955T853 994Q1027 994 1126 967T1290 872Q1357 804 1377 722T1397 440V0H1035V440Q1035 557 1027 598T989 669Q936 721 746 721Q558 721 497 657Q464 622 454 571T444
387V0H82V969Z" />
<glyph unicode="o" glyph-name="o" horiz-adv-x="1481" d="M741 994Q988 994 1110 975T1302 905Q1374 853 1400 769T1426 503Q1426 368 1419 301T1391 179Q1339 43 1180 6Q1048 -25 742 -25Q471 -25 354 -6T167 72Q100 127 78 216T55 516Q55 636 64 698T101 813Q156
919 287 956T741 994ZM744 721Q564 721 501 693Q455 672 436 623T417 478Q417 383 433 342T494 280Q563 248 743 248Q949 248 1006 291T1064 487Q1064 583 1046 627T981 691Q912 721 744 721Z" />
<glyph unicode="p" glyph-name="p" horiz-adv-x="1503" d="M82 -403V969H423V838H443Q489 928 583 961T887 994Q1074 994 1180 970T1348 888Q1406 835 1427 750T1448 480Q1448 357 1439 288T1405 162Q1360 56 1244 16T871 -25Q686 -25 600 6T461 125H444V-403H82ZM778
721Q550 721 497 675Q444 629 444 474Q444 391 459 349T511 285Q574 248 767 248Q967 248 1027 288Q1061 311 1073 356T1086 499Q1086 588 1071 627T1014 688Q952 720 778 721Z" />
<glyph unicode="q" glyph-name="q" horiz-adv-x="1502" d="M1420 -403H1058V125H1042Q982 35 901 5T634 -25Q428 -25 324 -3T156 78Q100 130 78 215T55 466Q55 656 80 752T171 901Q233 952 338 973T640 994Q833 994 917 963T1060 838H1079V969H1420V-403ZM730
721Q531 721 472 678Q442 656 430 608T417 466Q417 384 430 346T482 286Q548 248 735 248Q942 248 1000 290T1058 485Q1058 578 1043 620T986 686Q924 720 730 721Z" />
<glyph unicode="r" glyph-name="r" horiz-adv-x="1220" d="M82 969H423V823H441Q492 916 577 955T816 994Q1035 994 1121 908T1207 603Q1207 590 1205 538H864Q864 623 846 657Q811 721 673 721Q544 721 490 651Q463 616 454 565T444 402V0H82V969Z" />
<glyph unicode="s" glyph-name="s" horiz-adv-x="1440" d="M51 308H420Q425 246 489 223T723 200Q899 200 962 219T1026 290Q1026 340 965 357Q937 365 656 368Q394 368 333 377Q163 400 103 488Q58 554 58 666Q58 880 216 945Q335 994 727 994Q974 994 1086 976T1260
905Q1298 873 1314 828T1338 695H969Q959 731 944 741Q899 769 716 769Q546 769 483 752T420 690Q420 631 507 625Q575 620 1001 617Q1205 616 1296 548Q1388 481 1388 315Q1388 205 1352 137T1239 34Q1111 -25 697 -25Q432 -25 317 -5T136 76Q54 150 51 308Z"
/>
<glyph unicode="t" glyph-name="t" d="M191 1192H553V969H1126V710H553V428Q553 314 569 285Q596 235 697 235Q802 235 827 283Q837 302 839 320T841 415H1172Q1170 276 1156 214T1099 99Q1045 30 950 3T666 -25Q492 -25 408 -6T270 65Q231 103 214 148T193 272Q191
301 191 428V710H0V969H191V1192Z" />
<glyph unicode="u" glyph-name="u" horiz-adv-x="1469" d="M1387 0H1046V145H1028Q985 52 891 14T613 -25Q445 -25 346 3T182 97Q116 165 96 246T75 526V969H437V526Q437 420 447 375T487 301Q518 271 568 260T722 248Q898 248 961 302Q1000 336 1012 389T1025
579V969H1387V0Z" />
<glyph unicode="v" glyph-name="v" horiz-adv-x="1369" d="M-27 969H385L686 281L985 969H1396L919 0H451L-27 969Z" />
<glyph unicode="w" glyph-name="w" horiz-adv-x="2039" d="M-20 969H363L585 265L842 969H1185L1447 276L1673 969H2060L1699 0H1208L1017 570L822 0H339L-20 969Z" />
<glyph unicode="x" glyph-name="x" horiz-adv-x="1401" d="M13 969H501L684 711H699L894 969H1361L971 520L1401 0H935L705 328H687L448 0H0L416 501L13 969Z" />
<glyph unicode="y" glyph-name="y" horiz-adv-x="1329" d="M-27 969H371L647 265L955 969H1356L840 -125Q765 -284 742 -319T672 -384Q588 -436 408 -436Q291 -436 252 -431V-181Q274 -180 333 -180Q425 -181 467 -146T552 0H405L-27 969Z" />
<glyph unicode="z" glyph-name="z" horiz-adv-x="1246" d="M77 969H1192V692L593 253H1212V0H34V251L656 723H77V969Z" />
<glyph unicode="{" glyph-name="braceleft" horiz-adv-x="804" d="M747 1411V1156Q623 1152 580 1108T537 939Q536 828 532 792T511 729Q474 671 368 658V639Q472 625 504 580Q523 554 529 513T537 348Q540 224 582 180T747 131V-128Q531 -128 448 -116T308 -65Q231
-11 207 76T173 422Q171 481 147 502T55 524V773Q141 779 160 801T179 926Q180 1077 197 1158T258 1293Q314 1364 411 1387T747 1411Z" />
<glyph unicode="|" glyph-name="bar" horiz-adv-x="1024" d="M313 1365H711V-341H313V1365Z" />
<glyph unicode="}" glyph-name="braceright" horiz-adv-x="804" d="M57 1411Q220 1411 285 1406T415 1380Q531 1346 577 1246T625 926Q626 824 644 802T749 773V524Q673 523 651 495Q637 477 635 455T626 275Q621 159 600 88T534 -31Q478 -92 389 -110T57 -128V131Q179
136 221 180T267 348Q269 472 275 513T300 580Q332 625 436 639V658Q330 671 293 729Q276 755 272 791T267 939Q267 1064 224 1108T57 1156V1411Z" />
<glyph unicode="~" glyph-name="asciitilde" horiz-adv-x="1365" d="M376 1096L188 1255Q230 1366 279 1434Q373 1564 507 1564Q549 1564 596 1550T783 1482Q843 1459 874 1459Q910 1459 935 1482T996 1570L1184 1411Q1131 1281 1084 1220Q991 1099 862 1099Q830
1099 781 1114T603 1178Q529 1207 496 1207Q462 1207 436 1183T376 1096Z" />
</font>
</defs>
</svg>
